<svg width="190" height="61" viewBox="0 0 190 61" fill="none" xmlns="http://www.w3.org/2000/svg">
<path d="M155.376 8.26209L155.856 6.32056L155.376 8.26209ZM186.092 38.7956L187.871 37.8827L186.092 38.7956ZM184.195 47.3807L184.431 49.3667L184.195 47.3807ZM138.856 54.004L139.675 55.8286L138.856 54.004ZM75.8164 58.6438L76.1117 60.6219L75.8164 58.6438ZM60.0564 54.418L58.9255 56.0676L60.0564 54.418ZM7.09818 45.3956L5.12437 45.7183L7.09818 45.3956ZM13.5364 6.80701L13.5944 8.80617C18.7325 8.65709 23.8717 8.94995 29.0132 9.68537L29.2964 7.70552L29.5796 5.72567C24.2144 4.95824 18.8469 4.65209 13.4784 4.80785L13.5364 6.80701ZM29.2964 7.70552L29.0132 9.68537C34.4092 10.4572 39.8081 10.6392 45.2073 10.2306L45.0564 8.23633L44.9054 6.24203C39.798 6.62855 34.6902 6.45669 29.5796 5.72567L29.2964 7.70552ZM45.0564 8.23633L45.2073 10.2306C50.2555 9.8486 55.3073 10.2358 60.3692 11.3968L60.8164 9.44745L61.2635 7.49807C55.8188 6.24921 50.3639 5.82896 44.9054 6.24203L45.0564 8.23633ZM60.8164 9.44745L60.3692 11.3968C66.2251 12.74 72.02 11.513 77.6488 7.93738L76.5764 6.2492L75.504 4.56102C70.6261 7.65963 65.9143 8.56485 61.2635 7.49807L60.8164 9.44745ZM76.5764 6.2492L77.6488 7.93738C82.5879 4.79986 87.3895 3.58805 92.1116 4.12221L92.3364 2.13488L92.5612 0.147558C86.7766 -0.506795 81.0715 1.02427 75.504 4.56102L76.5764 6.2492ZM92.3364 2.13488L92.1116 4.12221C97.4711 4.72848 102.832 4.90189 108.193 4.64215L108.096 2.64449L108 0.646834C102.854 0.896125 97.7083 0.729801 92.5612 0.147558L92.3364 2.13488ZM108.096 2.64449L108.193 4.64215C112.974 4.41053 117.831 5.768 122.802 8.85376L123.856 7.15456L124.911 5.45536C119.375 2.01866 113.725 0.369421 108 0.646834L108.096 2.64449ZM123.856 7.15456L122.802 8.85376C128.513 12.3993 134.404 13.2044 140.3 11.0596L139.616 9.18007L138.933 7.30055C134.322 8.97757 129.707 8.43227 124.911 5.45536L123.856 7.15456ZM139.616 9.18007L140.3 11.0596C145.193 9.27967 150.042 9.0033 154.896 10.2036L155.376 8.26209L155.856 6.32056C150.204 4.92306 144.546 5.25866 138.933 7.30055L139.616 9.18007ZM155.376 8.26209L154.896 10.2036C160.39 11.562 165.898 11.8676 171.408 11.1137L171.136 9.13218L170.865 7.15064C165.868 7.83448 160.869 7.56002 155.856 6.32056L155.376 8.26209ZM171.136 9.13218L171.408 11.1137C176.354 10.4368 179.725 11.2692 181.933 13.1331L183.223 11.6048L184.513 10.0765C181.112 7.20586 176.425 6.38983 170.865 7.15064L171.136 9.13218ZM183.223 11.6048L181.933 13.1331C183.802 14.7105 184.533 17.4511 182.847 22.3894L184.739 23.0356L186.632 23.6819C188.533 18.1135 188.253 13.2336 184.513 10.0765L183.223 11.6048ZM184.739 23.0356L182.847 22.3894C180.865 28.1917 181.387 34.0067 184.312 39.7086L186.092 38.7956L187.871 37.8827C185.406 33.0779 185.026 28.3863 186.632 23.6819L184.739 23.0356ZM186.092 38.7956L184.312 39.7086C185.629 42.2754 185.841 43.7516 185.686 44.4505C185.63 44.7057 185.53 44.8421 185.367 44.961C185.159 45.1118 184.741 45.3019 183.96 45.3946L184.195 47.3807L184.431 49.3667C185.63 49.2244 186.776 48.8805 187.716 48.1985C188.7 47.4844 189.332 46.4889 189.592 45.3133C190.07 43.1505 189.25 40.5692 187.871 37.8827L186.092 38.7956ZM184.195 47.3807L183.96 45.3946C179.747 45.8946 174.948 47.3287 169.588 49.6282L170.376 51.4662L171.165 53.3042C176.311 51.0963 180.725 49.8067 184.431 49.3667L184.195 47.3807ZM170.376 51.4662L169.588 49.6282C164.731 51.7117 159.944 52.0616 155.152 50.7297L154.616 52.6567L154.081 54.5836C159.795 56.1717 165.515 55.7279 171.165 53.3042L170.376 51.4662ZM154.616 52.6567L155.152 50.7297C149.422 49.1374 143.691 49.6417 138.037 52.1794L138.856 54.004L139.675 55.8286C144.529 53.6499 149.304 53.256 154.081 54.5836L154.616 52.6567ZM138.856 54.004L138.037 52.1794C132.966 54.4559 127.926 55.8177 122.91 56.2864L123.096 58.2777L123.282 60.2691C128.774 59.7559 134.24 58.2686 139.675 55.8286L138.856 54.004ZM123.096 58.2777L122.91 56.2864C117.957 56.7493 112.99 56.1252 107.992 54.3919L107.336 56.2815L106.681 58.1711C112.19 60.0813 117.729 60.788 123.282 60.2691L123.096 58.2777ZM107.336 56.2815L107.992 54.3919C102.383 52.4468 96.734 52.1648 91.0938 53.5671L91.5764 55.5081L92.0589 57.449C96.9254 56.239 101.784 56.4727 106.681 58.1711L107.336 56.2815ZM91.5764 55.5081L91.0938 53.5671C85.9011 54.8582 80.7102 55.8909 75.521 56.6657L75.8164 58.6438L76.1117 60.6219C81.4292 59.8279 86.745 58.7702 92.0589 57.449L91.5764 55.5081ZM75.8164 58.6438L75.521 56.6657C70.8638 57.3611 66.1117 56.1445 61.1873 52.7684L60.0564 54.418L58.9255 56.0676C64.5077 59.8946 70.2623 61.4952 76.1117 60.6219L75.8164 58.6438ZM60.0564 54.418L61.1873 52.7684C55.6792 48.9922 50.0501 46.9831 44.3268 46.8958L44.2964 48.8956L44.2659 50.8953C49.0493 50.9683 53.9269 52.6407 58.9255 56.0676L60.0564 54.418ZM44.2964 48.8956L44.3268 46.8958C38.9917 46.8145 33.6571 47.0596 28.3233 47.6311L28.5364 49.6197L28.7494 51.6083C33.9223 51.0541 39.0943 50.8165 44.2659 50.8953L44.2964 48.8956ZM28.5364 49.6197L28.3233 47.6311C23.0105 48.2002 18.2584 48.9615 14.0746 49.9203L14.5213 51.8698L14.968 53.8192C18.9643 52.9035 23.5556 52.1647 28.7494 51.6083L28.5364 49.6197ZM14.5213 51.8698L14.0746 49.9203C12.4615 50.2899 11.5358 49.9905 10.9126 49.4469C10.1866 48.8137 9.46971 47.5062 9.07198 45.073L7.09818 45.3956L5.12437 45.7183C5.58534 48.5384 6.53501 50.9366 8.28339 52.4614C10.1345 54.0759 12.4911 54.3868 14.968 53.8192L14.5213 51.8698ZM7.09818 45.3956L9.07198 45.073C8.20093 39.744 7.01637 34.4176 5.51901 29.0941L3.59372 29.6356L1.66842 30.1772C3.1263 35.3603 4.27805 40.5406 5.12437 45.7183L7.09818 45.3956ZM3.59372 29.6356L5.51901 29.0941C4.10482 24.0663 3.68592 19.2502 4.22968 14.6294L2.24338 14.3956L0.257087 14.1619C-0.35395 19.3544 0.127368 24.6983 1.66842 30.1772L3.59372 29.6356ZM2.24338 14.3956L4.22968 14.6294C4.51503 12.2044 4.82269 10.4973 5.13182 9.43393C5.2907 8.88737 5.4143 8.63958 5.45869 8.56985C5.55048 8.42571 5.23172 9.03564 4.38293 9.03564V7.03564V5.03564C3.10965 5.03564 2.38338 5.95225 2.08463 6.42144C1.73849 6.96505 1.48852 7.63725 1.29082 8.31736C0.88676 9.70731 0.549129 11.6802 0.257087 14.1619L2.24338 14.3956ZM4.38293 7.03564V9.03564C5.26907 9.03564 8.35969 8.95805 13.5944 8.80617L13.5364 6.80701L13.4784 4.80785C8.20638 4.96082 5.19471 5.03564 4.38293 5.03564V7.03564Z" fill="black"/>
<path d="M47.6122 22.0356L42.8322 36.0356H41.0322L36.2522 22.0356H38.2122L41.9322 33.5956L45.6522 22.0356H47.6122ZM50.3835 24.2956C50.0101 24.2956 49.7168 24.1956 49.5035 23.9956C49.2901 23.7956 49.1835 23.5223 49.1835 23.1756C49.1835 22.829 49.2901 22.5556 49.5035 22.3556C49.7168 22.1423 50.0101 22.0356 50.3835 22.0356C50.7568 22.0356 51.0501 22.1423 51.2635 22.3556C51.4901 22.5556 51.6035 22.829 51.6035 23.1756C51.6035 23.5223 51.4901 23.7956 51.2635 23.9956C51.0501 24.1956 50.7568 24.2956 50.3835 24.2956ZM49.5435 26.0356H51.2435V36.0356H49.5435V26.0356ZM62.4858 31.6956H55.2858C55.3792 32.709 55.6792 33.4823 56.1858 34.0156C56.6925 34.5356 57.3925 34.7956 58.2858 34.7956C59.4858 34.7956 60.4392 34.3223 61.1458 33.3756L62.1058 34.2956C61.7192 34.909 61.1792 35.389 60.4858 35.7356C59.8058 36.069 59.0525 36.2356 58.2258 36.2356C56.7458 36.2356 55.5992 35.7823 54.7858 34.8756C53.9725 33.969 53.5658 32.6956 53.5658 31.0556C53.5658 29.429 53.9725 28.1556 54.7858 27.2356C55.6125 26.3023 56.7458 25.8356 58.1858 25.8356C59.5325 25.8356 60.5858 26.2956 61.3458 27.2156C62.1058 28.1223 62.4858 29.3956 62.4858 31.0356V31.6956ZM60.9258 30.2956C60.9258 29.3356 60.6725 28.5823 60.1658 28.0356C59.6725 27.489 58.9858 27.2156 58.1058 27.2156C57.2792 27.2156 56.6192 27.4956 56.1258 28.0556C55.6458 28.6156 55.3658 29.409 55.2858 30.4356H60.9258V30.2956ZM76.3374 26.0356L73.8374 36.0356H72.2974L69.8774 27.8556L67.4574 36.0356H65.9174L63.4174 26.0356H65.1974L66.8174 33.7156L69.0974 26.0356H70.6574L72.9374 33.7156L74.5574 26.0356H76.3374ZM82.64 28.5556C82.64 27.5423 82.6067 26.7023 82.54 26.0356H84.06C84.1134 26.569 84.14 27.1623 84.14 27.8156H84.2C84.4667 27.2023 84.8867 26.7223 85.46 26.3756C86.0334 26.0156 86.6734 25.8356 87.38 25.8356C88.0867 25.8356 88.6934 26.0156 89.2 26.3756C89.7067 26.7356 90.0467 27.2356 90.22 27.8756C90.5 27.249 90.9267 26.7556 91.5 26.3956C92.0734 26.0223 92.72 25.8356 93.44 25.8356C94.5334 25.8356 95.3867 26.189 96 26.8956C96.6267 27.6023 96.94 28.589 96.94 29.8556V36.0356H95.26V29.9956C95.26 29.089 95.0667 28.3956 94.68 27.9156C94.3067 27.4356 93.76 27.1956 93.04 27.1956C92.3334 27.1956 91.7534 27.4623 91.3 27.9956C90.8467 28.5156 90.62 29.189 90.62 30.0156V36.0356H88.94V30.0756C88.94 29.1023 88.7667 28.3823 88.42 27.9156C88.0734 27.4356 87.5467 27.1956 86.84 27.1956C86.4 27.1956 85.9867 27.329 85.6 27.5956C85.2134 27.8623 84.9 28.2156 84.66 28.6556C84.4334 29.0956 84.32 29.569 84.32 30.0756V36.0356H82.64V28.5556ZM107.217 26.0356L103.597 36.2156C102.677 38.789 101.257 40.0756 99.3374 40.0756C98.9907 40.0756 98.6174 40.029 98.2174 39.9356V38.6356C98.4574 38.7156 98.7507 38.7556 99.0974 38.7556C99.7774 38.7556 100.357 38.509 100.837 38.0156C101.317 37.5223 101.777 36.689 102.217 35.5156L98.4974 26.0356H100.317L102.997 33.6956L105.377 26.0356H107.217ZM128.359 22.0356L125.459 36.0356H123.639L120.619 24.5556L117.579 36.0356H115.759L112.839 22.0356H114.819L116.779 33.2156L119.679 22.0356H121.539L124.419 33.1756L126.379 22.0356H128.359ZM134.089 36.2356C133.103 36.2356 132.243 36.029 131.509 35.6156C130.789 35.189 130.229 34.5823 129.829 33.7956C129.443 33.009 129.249 32.089 129.249 31.0356C129.249 29.9823 129.443 29.0623 129.829 28.2756C130.229 27.489 130.789 26.889 131.509 26.4756C132.243 26.049 133.103 25.8356 134.089 25.8356C135.583 25.8356 136.763 26.3023 137.629 27.2356C138.509 28.169 138.949 29.4356 138.949 31.0356C138.949 32.6356 138.509 33.9023 137.629 34.8356C136.763 35.769 135.583 36.2356 134.089 36.2356ZM134.089 34.9356C135.076 34.9356 135.849 34.589 136.409 33.8956C136.969 33.2023 137.249 32.249 137.249 31.0356C137.249 29.8223 136.969 28.869 136.409 28.1756C135.849 27.4823 135.076 27.1356 134.089 27.1356C133.116 27.1356 132.349 27.4823 131.789 28.1756C131.229 28.869 130.949 29.8223 130.949 31.0356C130.949 32.249 131.229 33.2023 131.789 33.8956C132.349 34.589 133.116 34.9356 134.089 34.9356ZM141.002 28.4756C141.002 27.3423 140.982 26.529 140.942 26.0356H142.522C142.576 26.569 142.602 27.1556 142.602 27.7956V27.9956H142.662C142.916 27.3023 143.322 26.769 143.882 26.3956C144.442 26.0223 145.102 25.8356 145.862 25.8356C146.076 25.8356 146.269 25.8556 146.442 25.8956V27.2956C146.269 27.2556 146.036 27.2356 145.742 27.2356C145.182 27.2356 144.669 27.409 144.202 27.7556C143.736 28.089 143.369 28.549 143.102 29.1356C142.836 29.7223 142.702 30.3623 142.702 31.0556V36.0356H141.002V28.4756ZM154.334 36.0356L151.034 31.0156L149.574 32.4756V36.0356H147.874V21.1956H149.574V30.4356L153.954 26.0356H155.994L152.174 29.8756L156.274 36.0356H154.334Z" fill="black"/>
</svg>
