<svg width="36" height="36" viewBox="0 0 36 36" fill="none" xmlns="http://www.w3.org/2000/svg">
<path d="M18 3.375C15.1075 3.375 12.2799 4.23274 9.87479 5.83976C7.46972 7.44677 5.5952 9.73089 4.48827 12.4033C3.38134 15.0756 3.09171 18.0162 3.65602 20.8532C4.22033 23.6902 5.61323 26.2961 7.65857 28.3414C9.70391 30.3868 12.3098 31.7797 15.1468 32.344C17.9838 32.9083 20.9244 32.6187 23.5968 31.5117C26.2691 30.4048 28.5532 28.5303 30.1602 26.1252C31.7673 23.7201 32.625 20.8926 32.625 18C32.6209 14.1225 31.0788 10.4049 28.3369 7.66309C25.5951 4.92125 21.8775 3.37909 18 3.375ZM30.3258 16.9003C29.9677 16.8834 29.6091 16.875 29.25 16.875C27.1632 16.8756 25.0855 17.1517 23.0709 17.6962C22.5798 16.2388 21.9463 14.8332 21.1795 13.5C23.1792 12.2942 24.9894 10.7991 26.5514 9.06328C28.7188 11.1311 30.0603 13.9165 30.3258 16.9003ZM24.7894 7.65844C23.3842 9.20248 21.76 10.532 19.9688 11.6044C18.4685 9.49278 16.6336 7.64028 14.5364 6.12C16.2569 5.61776 18.0659 5.49521 19.8383 5.76084C21.6108 6.02646 23.3044 6.67392 24.802 7.65844H24.7894ZM12.0445 7.155C14.3432 8.60259 16.3472 10.472 17.9508 12.6647C15.1442 13.9582 12.0903 14.6271 9.00001 14.625C8.04624 14.6245 7.09355 14.5611 6.14813 14.4352C7.08885 11.3323 9.20478 8.71979 12.0445 7.155ZM5.62501 18C5.62495 17.5471 5.64983 17.0945 5.69954 16.6444C6.79299 16.7979 7.89583 16.875 9.00001 16.875C12.529 16.8783 16.0139 16.0902 19.1981 14.5687C19.8997 15.7802 20.4795 17.0582 20.9292 18.3839C19.7342 18.8328 18.5777 19.3784 17.4713 20.0152C14.3846 21.7983 11.7381 24.2522 9.72704 27.1955C8.43563 26.037 7.40286 24.6193 6.69607 23.0349C5.98928 21.4505 5.62433 19.7349 5.62501 18ZM11.5313 28.5469C13.3571 25.8464 15.773 23.5964 18.5963 21.967C19.5402 21.4223 20.5252 20.9521 21.5424 20.5608C21.8904 22.1055 22.0664 23.684 22.0669 25.2675C22.0676 26.8069 21.9031 28.342 21.5761 29.8463C19.9049 30.3511 18.1458 30.4963 16.4145 30.2724C14.6832 30.0484 13.0189 29.4603 11.5313 28.5469ZM24.0553 28.7902C24.2289 27.6263 24.3163 26.4512 24.3169 25.2745C24.3167 23.4532 24.1067 21.638 23.6911 19.8647C25.5036 19.3756 27.3726 19.1269 29.25 19.125C29.6063 19.125 29.963 19.1339 30.3202 19.1517C30.1318 21.1446 29.4636 23.0622 28.3725 24.7405C27.2815 26.4187 25.8002 27.8078 24.0553 28.7888V28.7902Z" fill="black"/>
</svg>
