<svg width="51" height="51" viewBox="0 0 51 51" fill="none" xmlns="http://www.w3.org/2000/svg">
<path d="M44.625 9.5625H6.375C5.95231 9.5625 5.54693 9.73041 5.24805 10.0293C4.94916 10.3282 4.78125 10.7336 4.78125 11.1562V38.25C4.78125 39.0954 5.11707 39.9061 5.71485 40.5039C6.31262 41.1017 7.12337 41.4375 7.96875 41.4375H43.0312C43.8766 41.4375 44.6874 41.1017 45.2852 40.5039C45.8829 39.9061 46.2188 39.0954 46.2188 38.25V11.1562C46.2188 10.7336 46.0508 10.3282 45.752 10.0293C45.4531 9.73041 45.0477 9.5625 44.625 9.5625ZM25.5 26.526L10.4729 12.75H40.5271L25.5 26.526ZM19.6649 25.5L7.96875 36.22V14.78L19.6649 25.5ZM22.0236 27.6615L24.4143 29.8629C24.7083 30.1328 25.0929 30.2826 25.492 30.2826C25.8912 30.2826 26.2758 30.1328 26.5698 29.8629L28.9604 27.6615L40.5151 38.25H10.4729L22.0236 27.6615ZM31.3351 25.5L43.0312 14.778V36.222L31.3351 25.5Z" fill="black"/>
</svg>
