<svg width="38" height="38" viewBox="0 0 38 38" fill="none" xmlns="http://www.w3.org/2000/svg">
<path d="M30.921 11.2338C31.284 10.0629 31.4004 8.82948 31.263 7.61136C31.1255 6.39324 30.7372 5.21681 30.1224 4.15625C30.0182 3.97569 29.8682 3.82576 29.6877 3.72153C29.5071 3.6173 29.3022 3.56245 29.0938 3.5625C27.7106 3.55961 26.3459 3.88025 25.1088 4.49882C23.8716 5.11739 22.7963 6.01674 21.9688 7.125H18.4062C17.5787 6.01674 16.5034 5.11739 15.2662 4.49882C14.0291 3.88025 12.6644 3.55961 11.2812 3.5625C11.0728 3.56245 10.8679 3.6173 10.6873 3.72153C10.5068 3.82576 10.3568 3.97569 10.2526 4.15625C9.63782 5.21681 9.24948 6.39324 9.11203 7.61136C8.97458 8.82948 9.09101 10.0629 9.45398 11.2338C8.7203 12.5143 8.32729 13.9617 8.3125 15.4375V16.625C8.315 18.6343 9.0444 20.5748 10.366 22.0882C11.6876 23.6016 13.5122 24.5857 15.5028 24.8588C14.6903 25.8986 14.2492 27.1804 14.25 28.5V29.6875H10.6875C9.74267 29.6875 8.83653 29.3122 8.16843 28.6441C7.50033 27.976 7.125 27.0698 7.125 26.125C7.125 25.3453 6.97142 24.5732 6.67303 23.8528C6.37465 23.1324 5.93729 22.4779 5.38595 21.9266C4.8346 21.3752 4.18005 20.9379 3.45968 20.6395C2.73931 20.3411 1.96722 20.1875 1.1875 20.1875C0.872555 20.1875 0.57051 20.3126 0.347811 20.5353C0.125111 20.758 0 21.0601 0 21.375C0 21.6899 0.125111 21.992 0.347811 22.2147C0.57051 22.4374 0.872555 22.5625 1.1875 22.5625C2.13233 22.5625 3.03847 22.9378 3.70657 23.6059C4.37467 24.274 4.75 25.1802 4.75 26.125C4.75 27.6997 5.37556 29.21 6.48905 30.3235C7.60255 31.4369 9.11278 32.0625 10.6875 32.0625H14.25V34.4375C14.25 34.7524 14.3751 35.0545 14.5978 35.2772C14.8205 35.4999 15.1226 35.625 15.4375 35.625C15.7524 35.625 16.0545 35.4999 16.2772 35.2772C16.4999 35.0545 16.625 34.7524 16.625 34.4375V28.5C16.625 27.5552 17.0003 26.649 17.6684 25.9809C18.3365 25.3128 19.2427 24.9375 20.1875 24.9375C21.1323 24.9375 22.0385 25.3128 22.7066 25.9809C23.3747 26.649 23.75 27.5552 23.75 28.5V34.4375C23.75 34.7524 23.8751 35.0545 24.0978 35.2772C24.3205 35.4999 24.6226 35.625 24.9375 35.625C25.2524 35.625 25.5545 35.4999 25.7772 35.2772C25.9999 35.0545 26.125 34.7524 26.125 34.4375V28.5C26.1258 27.1804 25.6847 25.8986 24.8722 24.8588C26.8628 24.5857 28.6874 23.6016 30.009 22.0882C31.3306 20.5748 32.06 18.6343 32.0625 16.625V15.4375C32.0477 13.9617 31.6547 12.5143 30.921 11.2338ZM29.6875 16.625C29.6875 18.1997 29.0619 19.71 27.9484 20.8234C26.8349 21.9369 25.3247 22.5625 23.75 22.5625H16.625C15.0503 22.5625 13.5401 21.9369 12.4266 20.8234C11.3131 19.71 10.6875 18.1997 10.6875 16.625V15.4375C10.7021 14.25 11.0576 13.0918 11.7117 12.1006C11.8337 11.9399 11.9126 11.7508 11.9412 11.551C11.9698 11.3513 11.947 11.1476 11.875 10.9591C11.5657 10.1614 11.4168 9.31053 11.437 8.45519C11.4571 7.59985 11.6458 6.75689 11.9923 5.97461C12.9641 6.07916 13.9 6.40109 14.7305 6.91655C15.5609 7.43201 16.2648 8.12777 16.7898 8.95227C16.8967 9.11956 17.044 9.25736 17.218 9.35305C17.392 9.44874 17.5872 9.49926 17.7858 9.5H22.5877C22.7871 9.50001 22.9832 9.44984 23.158 9.35411C23.3329 9.25839 23.4808 9.1202 23.5882 8.95227C24.1131 8.1277 24.8169 7.43188 25.6474 6.91641C26.4779 6.40094 27.4138 6.07905 28.3857 5.97461C28.7317 6.75709 28.9199 7.60015 28.9395 8.45549C28.9591 9.31083 28.8098 10.1616 28.5 10.9591C28.4282 11.1458 28.4042 11.3474 28.4301 11.5457C28.4561 11.7441 28.5311 11.9327 28.6484 12.0947C29.3091 13.0858 29.6698 14.2465 29.6875 15.4375V16.625Z" fill="black"/>
</svg>
