<svg width="56" height="53" viewBox="0 0 56 53" fill="none" xmlns="http://www.w3.org/2000/svg">
<path d="M24.592 2.87918C25.6645 -0.292836 30.1505 -0.292836 31.2229 2.87918L35.1584 14.5188C35.7766 16.3469 37.4914 17.5773 39.4211 17.5774H51.8079C55.2316 17.5778 56.6181 21.9874 53.8108 23.9475L44.0676 30.7503C42.4274 31.8955 41.7404 33.986 42.3811 35.8811L46.1663 47.0784C47.2481 50.2786 43.6167 53.0026 40.8469 51.0686L30.4836 43.8323C28.9362 42.752 26.8787 42.752 25.3313 43.8323L14.968 51.0686C12.1982 53.0026 8.56681 50.2786 9.64868 47.0784L13.4338 35.8811C14.0746 33.986 13.3875 31.8955 11.7473 30.7503L2.00415 23.9475C-0.803202 21.9873 0.583291 17.5778 4.00708 17.5774H16.3938C18.3235 17.5773 20.0384 16.3469 20.6565 14.5188L24.592 2.87918Z" fill="#F9E84A" stroke="black"/>
</svg>
