<svg width="156" height="10" viewBox="0 0 156 10" fill="none" xmlns="http://www.w3.org/2000/svg">
<path d="M0.67572 5.00049C7.67572 -1.41596 13.0554 2.32697 14.8702 5.00049C16.8794 7.8465 22.0646 11.8309 26.7313 5.00049C31.3979 -1.82993 36.8424 2.15448 38.9813 5.00049C40.7313 8.01898 45.6702 12.2449 51.4257 5.00049C57.1813 -2.2439 63.1572 1.98199 65.4257 5.00049C67.8239 7.8465 73.6313 11.8309 77.6757 5.00049" stroke="black" stroke-width="2"/>
<path d="M77.6757 5.00049C84.6757 -1.41596 90.0554 2.32697 91.8702 5.00049C93.8794 7.8465 99.0646 11.8309 103.731 5.00049C108.398 -1.82993 113.842 2.15448 115.981 5.00049C117.731 8.01898 122.67 12.2449 128.426 5.00049C134.181 -2.2439 140.157 1.98199 142.426 5.00049C144.824 7.8465 150.631 11.8309 154.676 5.00049" stroke="black" stroke-width="2"/>
</svg>
